<?xml version="1.0" encoding="UTF-8"?>
<svg width="50px" height="50px" viewBox="0 0 50 50" version="1.1" xmlns="http://www.w3.org/2000/svg" xmlns:xlink="http://www.w3.org/1999/xlink">
    <!-- Generator: Sketch 53.2 (72643) - https://sketchapp.com -->
    <title>Shape</title>
    <desc>Created with Sketch.</desc>
    <g id="Website" stroke="none" stroke-width="1" fill="none" fill-rule="evenodd">
        <g id="Why" transform="translate(-670.000000, -451.000000)" fill="#B4B0C2" fill-rule="nonzero">
            <path d="M696.629047,476.762236 C700.055048,477.490646 702.850337,480.084975 703.776581,483.554573 C703.91903,484.088171 703.601942,484.636215 703.068344,484.778665 C702.534746,484.921114 701.986702,484.604025 701.844252,484.070427 C701.004177,480.923606 698.212847,478.690549 695.037469,478.561718 C691.78299,478.69054 688.991657,480.923602 688.151581,484.070427 C688.009132,484.604025 687.461087,484.921114 686.927489,484.778665 C686.393891,484.636215 686.076803,484.088171 686.219252,483.554573 C687.142808,480.095042 689.924578,477.505705 693.388391,476.768622 C692.505362,476.508984 691.672932,476.030833 690.976268,475.334169 C688.755161,473.113062 688.755161,469.511938 690.976268,467.290831 C693.197376,465.069723 696.798499,465.069723 699.019607,467.290831 C701.240714,469.511938 701.240714,473.113062 699.019607,475.334169 C698.328616,476.02516 697.504062,476.501182 696.629047,476.762236 L696.629047,476.762236 Z M692.390482,468.705044 C690.950423,470.145103 690.950423,472.479897 692.390482,473.919956 C693.830541,475.360015 696.165334,475.360015 697.605393,473.919956 C699.045452,472.479897 699.045452,470.145103 697.605393,468.705044 C696.165334,467.264985 693.830541,467.264985 692.390482,468.705044 Z M698.467107,459.937982 C696.551097,461.853992 693.444624,461.853992 691.528622,459.937982 C689.612612,458.021972 689.612612,454.915499 691.528622,452.999497 C693.444632,451.083488 696.551103,451.083487 698.467107,452.999497 C700.383117,454.915507 700.383117,458.02198 698.467107,459.937982 Z M692.942834,454.413712 C691.807875,455.548667 691.807875,457.388807 692.942837,458.52377 C694.077792,459.658729 695.917932,459.658729 697.052895,458.523767 C698.187854,457.388812 698.187854,455.548672 697.052893,454.413711 C695.917937,453.27875 694.077797,453.27875 692.942834,454.413712 Z M717.998357,479.469294 C716.082347,481.385304 712.975874,481.385304 711.059872,479.469294 C709.143862,477.553284 709.143862,474.446812 711.059872,472.53081 C712.975882,470.6148 716.082355,470.6148 717.998358,472.530811 C719.914367,474.44682 719.914367,477.553292 717.998357,479.469294 Z M712.474084,473.945025 C711.339125,475.07998 711.339125,476.92012 712.474087,478.055082 C713.609042,479.190042 715.449182,479.190042 716.584145,478.055079 C717.719104,476.920124 717.719104,475.079984 716.584143,473.945023 C715.449187,472.810063 713.609047,472.810063 712.474084,473.945025 Z M698.467107,499.000544 C696.551097,500.916554 693.444624,500.916554 691.528622,499.000544 C689.612612,497.084534 689.612612,493.978062 691.528622,492.06206 C693.444632,490.14605 696.551103,490.14605 698.467107,492.06206 C700.383117,493.97807 700.383117,497.084542 698.467107,499.000544 Z M692.942834,493.476275 C691.807875,494.61123 691.807875,496.45137 692.942837,497.586332 C694.077792,498.721292 695.917932,498.721292 697.052895,497.586329 C698.187854,496.451374 698.187854,494.611234 697.052893,493.476273 C695.917937,492.341313 694.077797,492.341313 692.942834,493.476275 Z M678.935919,479.469294 C677.019909,481.385304 673.913437,481.385304 671.997435,479.469294 C670.081425,477.553284 670.081425,474.446812 671.997435,472.53081 C673.913445,470.6148 677.019917,470.6148 678.935921,472.530811 C680.851929,474.44682 680.851929,477.553292 678.935919,479.469294 Z M673.411647,473.945025 C672.276688,475.07998 672.276688,476.92012 673.41165,478.055082 C674.546605,479.190042 676.386745,479.190042 677.521707,478.055079 C678.656667,476.920124 678.656667,475.079984 677.521706,473.945023 C676.386749,472.810063 674.546609,472.810063 673.411647,473.945025 Z M703.874352,460.615651 C703.396266,460.33915 703.232849,459.727437 703.509349,459.249352 C703.78585,458.771266 704.397563,458.607849 704.875648,458.884349 C707.880988,460.622486 710.377497,463.118997 712.11565,466.12435 C712.392152,466.602435 712.228736,467.214148 711.750651,467.49065 C711.272566,467.767151 710.660852,467.603736 710.384351,467.125651 C708.821453,464.423322 706.576664,462.178531 703.874352,460.615651 Z M710.38435,484.874351 C710.66085,484.396265 711.272563,484.232848 711.750649,484.509349 C712.228735,484.785849 712.392152,485.397562 712.115651,485.875648 C710.377515,488.880987 707.881004,491.377496 704.875651,493.115649 C704.397566,493.39215 703.785852,493.228735 703.509351,492.75065 C703.232849,492.272565 703.396265,491.660851 703.87435,491.38435 C706.576678,489.821452 708.821469,487.576663 710.38435,484.874351 Z M686.125648,491.384349 C686.603734,491.66085 686.767151,492.272563 686.490651,492.750648 C686.21415,493.228734 685.602437,493.392151 685.124352,493.115651 C682.119012,491.377515 679.622503,488.881003 677.88435,485.87565 C677.607849,485.397565 677.771265,484.785852 678.24935,484.50935 C678.727435,484.232849 679.339148,484.396265 679.61565,484.87435 C681.178547,487.576678 683.423336,489.821469 686.125648,491.384349 Z M679.615651,467.125649 C679.33915,467.603734 678.727437,467.767151 678.249351,467.490651 C677.771266,467.21415 677.607849,466.602437 677.884349,466.124352 C679.622485,463.119012 682.118996,460.622503 685.12435,458.884351 C685.602435,458.607849 686.214148,458.771265 686.490649,459.24935 C686.767151,459.727435 686.603735,460.339148 686.12565,460.61565 C683.423322,462.178547 681.178531,464.423336 679.615651,467.125649 Z" id="Shape"></path>
        </g>
    </g>
</svg>